<svg xmlns="http://www.w3.org/2000/svg" viewBox="0 0 400 200" width="400" height="200">
  <!-- Gradient definitions -->
  <defs>
    <linearGradient id="logoGradient" x1="0%" y1="0%" x2="100%" y2="0%">
      <stop offset="0%" stop-color="#0cebeb" />
      <stop offset="100%" stop-color="#20e3b2" />
    </linearGradient>
    <linearGradient id="accentGradient" x1="0%" y1="0%" x2="100%" y2="100%">
      <stop offset="0%" stop-color="#0cebeb" />
      <stop offset="100%" stop-color="#29ffc6" />
    </linearGradient>
    <filter id="glow" x="-20%" y="-20%" width="140%" height="140%">
      <feGaussianBlur stdDeviation="3" result="blur" />
      <feComposite in="SourceGraphic" in2="blur" operator="over" />
    </filter>
  </defs>
  
  <!-- T horizontal bar (roof) -->
  <rect x="50" y="40" width="240" height="25" rx="3" fill="url(#logoGradient)" filter="url(#glow)" />
  
  <!-- T vertical curved bar -->
  <path d="M160,40 C160,40 160,65 160,75 C160,110 130,140 100,140 C85,140 75,135 75,135" 
        stroke="url(#logoGradient)" stroke-width="25" fill="none" stroke-linecap="round" />
  
  <!-- G that follows the curve -->
  <path d="M100,100 C115,100 130,85 130,70 L130,90 L110,90 M60,100 C60,70 80,60 100,60 C125,60 140,77 140,105 C140,133 115,150 90,150 C65,150 50,135 45,120" 
        stroke="url(#logoGradient)" stroke-width="15" fill="none" stroke-linecap="round" stroke-linejoin="round" />
  
  <!-- e -->
  <path d="M160,120 C160,100 175,85 195,85 C215,85 230,100 230,120 C230,140 215,155 195,155 C175,155 160,140 160,120 Z M160,115 L230,115" 
        stroke="url(#logoGradient)" stroke-width="12" fill="none" stroke-linecap="round" />
  
  <!-- n -->
  <path d="M245,100 L245,150 M245,115 C245,100 255,85 270,85 C285,85 295,95 295,110 L295,150" 
        stroke="url(#logoGradient)" stroke-width="12" fill="none" stroke-linecap="round" />
  
  <!-- Tech accent lines -->
  <path d="M290,45 L320,45 L320,25" stroke="url(#accentGradient)" stroke-width="3" fill="none" stroke-linecap="round" />
  <path d="M300,150 L350,150 L350,120" stroke="url(#accentGradient)" stroke-width="3" fill="none" stroke-linecap="round" />
  <path d="M50,120 L30,120 L30,150" stroke="url(#accentGradient)" stroke-width="3" fill="none" stroke-linecap="round" />
</svg>