<svg xmlns="http://www.w3.org/2000/svg" viewBox="0 0 100 100" width="100" height="100">
  <!-- Gradient definitions -->
  <defs>
    <linearGradient id="logoGradient" x1="0%" y1="0%" x2="100%" y2="0%">
      <stop offset="0%" stop-color="#0cebeb" />
      <stop offset="100%" stop-color="#20e3b2" />
    </linearGradient>
    <linearGradient id="accentGradient" x1="0%" y1="0%" x2="100%" y2="100%">
      <stop offset="0%" stop-color="#0cebeb" />
      <stop offset="100%" stop-color="#29ffc6" />
    </linearGradient>
    <filter id="glow" x="-20%" y="-20%" width="140%" height="140%">
      <feGaussianBlur stdDeviation="2" result="blur" />
      <feComposite in="SourceGraphic" in2="blur" operator="over" />
    </filter>
  </defs>
  
  <!-- Background circle (optional) -->
  <circle cx="50" cy="50" r="45" fill="#121212" />
  
  <!-- T horizontal bar -->
  <rect x="20" y="20" width="60" height="8" rx="2" fill="url(#logoGradient)" filter="url(#glow)" />
  
  <!-- T vertical curved bar -->
  <path d="M50,20 C50,20 50,28 50,35 C50,50 40,60 30,60 C25,60 20,58 20,58" 
        stroke="url(#logoGradient)" stroke-width="8" fill="none" stroke-linecap="round" />
  
  <!-- G that follows the curve -->
  <path d="M30,45 C35,45 40,40 40,35 L40,40 L35,40 M20,45 C20,35 25,30 30,30 C37,30 42,35 42,45 C42,55 35,60 30,60 C25,60 20,55 18,50" 
        stroke="url(#logoGradient)" stroke-width="5" fill="none" stroke-linecap="round" stroke-linejoin="round" />
  
  <!-- Tech accent lines -->
  <path d="M70,25 L80,25 L80,15" stroke="url(#accentGradient)" stroke-width="2" fill="none" stroke-linecap="round" />
  <path d="M70,70 L80,70 L80,80" stroke="url(#accentGradient)" stroke-width="2" fill="none" stroke-linecap="round" />
  <path d="M20,70 L10,70 L10,80" stroke="url(#accentGradient)" stroke-width="2" fill="none" stroke-linecap="round" />
</svg>