<svg xmlns="http://www.w3.org/2000/svg" viewBox="0 0 200 60" width="200" height="60">
  <defs>
    <linearGradient id="logoGradient" x1="0%" y1="0%" x2="100%" y2="0%">
      <stop offset="0%" stop-color="#0cebeb" />
      <stop offset="100%" stop-color="#20e3b2" />
    </linearGradient>
    <filter id="glow" x="-20%" y="-20%" width="140%" height="140%">
      <feGaussianBlur stdDeviation="1.5" result="blur" />
      <feComposite in="SourceGraphic" in2="blur" operator="over" />
    </filter>
  </defs>
  
  <!-- NexTGen logo - compact version for header -->
  <g transform="translate(10, 5)">
    <!-- T section -->
    <path d="M80,15 L120,15" stroke="url(#logoGradient)" stroke-width="4" fill="none" stroke-linecap="round" filter="url(#glow)" />
    <path d="M100,15 L100,35" stroke="url(#logoGradient)" stroke-width="4" fill="none" stroke-linecap="round" filter="url(#glow)" />
    
    <!-- NEX - ultra minimal -->
    <path d="M30,20 L30,35 M30,20 L40,35 M40,20 L40,35" stroke="url(#logoGradient)" stroke-width="3" fill="none" stroke-linecap="round" filter="url(#glow)" />
    <path d="M50,20 L50,35 M50,20 L60,20 M50,27 L57,27 M50,35 L60,35" stroke="url(#logoGradient)" stroke-width="3" fill="none" stroke-linecap="round" filter="url(#glow)" />
    <path d="M70,20 L75,35 M70,35 L75,20" stroke="url(#logoGradient)" stroke-width="3" fill="none" stroke-linecap="round" filter="url(#glow)" />
    
    <!-- GEN -->
    <path d="M130,27 C130,22 135,20 140,20 C145,20 147,21 147,23 M130,27 C130,32 135,35 140,35 C145,35 147,33 148,31 M140,27 L148,27 M148,27 L148,31" stroke="url(#logoGradient)" stroke-width="3" fill="none" stroke-linecap="round" filter="url(#glow)" />
    <path d="M155,20 L155,35 M155,20 L165,20 M155,27 L162,27 M155,35 L165,35" stroke="url(#logoGradient)" stroke-width="3" fill="none" stroke-linecap="round" filter="url(#glow)" />
    <path d="M170,20 L170,35 M170,20 L180,35 M180,20 L180,35" stroke="url(#logoGradient)" stroke-width="3" fill="none" stroke-linecap="round" filter="url(#glow)" />
  </g>
  
  <!-- ROBOTICS text -->
  <text x="100" y="50" font-family="Arial, sans-serif" font-size="12" font-weight="600" letter-spacing="1" text-anchor="middle" fill="url(#logoGradient)">
    ROBOTICS
  </text>
</svg>