<svg xmlns="http://www.w3.org/2000/svg" viewBox="0 0 100 100" width="100" height="100">
  <!-- Gradient definitions -->
  <defs>
    <linearGradient id="logoGradient" x1="0%" y1="0%" x2="100%" y2="0%">
      <stop offset="0%" stop-color="#0cebeb" />
      <stop offset="100%" stop-color="#20e3b2" />
    </linearGradient>
    <filter id="handDrawnEffect" x="-10%" y="-10%" width="120%" height="120%">
      <feTurbulence type="fractalNoise" baseFrequency="0.03" numOctaves="1" result="noise" seed="1"/>
      <feDisplacementMap in="SourceGraphic" in2="noise" scale="2" xChannelSelector="R" yChannelSelector="G"/>
    </filter>
    <filter id="glow" x="-20%" y="-20%" width="140%" height="140%">
      <feGaussianBlur stdDeviation="2" result="blur" />
      <feComposite in="SourceGraphic" in2="blur" operator="over" />
    </filter>
  </defs>
  
  <!-- Background circle (optional) -->
  <circle cx="50" cy="50" r="45" fill="#121212" />
  
  <!-- NT simplified logo -->
  <!-- Horizontal T bar -->
  <path d="M20,30 L80,30" 
        stroke="url(#logoGradient)" stroke-width="6" fill="none" stroke-linecap="round" 
        filter="url(#handDrawnEffect)" />
  
  <!-- Vertical T bar -->
  <path d="M50,30 L50,70" 
        stroke="url(#logoGradient)" stroke-width="6" fill="none" stroke-linecap="round" 
        filter="url(#handDrawnEffect)" />
  
  <!-- N (simplified) -->
  <path d="M25,45 L25,70 M25,45 L35,70 M35,45 L35,70" 
        stroke="url(#logoGradient)" stroke-width="4" fill="none" stroke-linecap="round" 
        filter="url(#handDrawnEffect)" />
  
  <!-- G (simplified) -->
  <path d="M65,58 C65,50 60,45 55,45 C50,45 45,50 45,58 C45,65 50,70 55,70 C60,70 65,67 65,60 L65,55 L55,55" 
        stroke="url(#logoGradient)" stroke-width="4" fill="none" stroke-linecap="round" 
        filter="url(#handDrawnEffect)" />
  
  <!-- Add a subtle glow effect -->
  <path d="M20,30 L80,30 M50,30 L50,70" 
        stroke="url(#logoGradient)" stroke-width="2" stroke-opacity="0.5" fill="none" 
        filter="url(#glow)" />
</svg>