<svg xmlns="http://www.w3.org/2000/svg" viewBox="0 0 100 100" width="100" height="100">
  <!-- Gradient definitions -->
  <defs>
    <linearGradient id="penGradient" x1="0%" y1="0%" x2="100%" y2="0%">
      <stop offset="0%" stop-color="#0cebeb" />
      <stop offset="100%" stop-color="#20e3b2" />
    </linearGradient>
    <filter id="calligraphyEffect" x="-10%" y="-10%" width="120%" height="120%">
      <feGaussianBlur stdDeviation="0.5" result="blur" />
      <feComposite in="SourceGraphic" in2="blur" operator="over" />
    </filter>
  </defs>
  
  <!-- Background circle (optional) -->
  <circle cx="50" cy="50" r="48" fill="#121212" />
  
  <!-- Main Signature Path -->
  <g filter="url(#calligraphyEffect)" transform="translate(5, 5) scale(0.9)">
    <!-- Horizontal T bar -->
    <path d="M20,35 L80,35" 
          stroke="url(#penGradient)" 
          stroke-width="5" 
          stroke-linecap="round"
          fill="none"
          stroke-linejoin="round" />
    
    <!-- Diagonal line from right of T -->
    <path d="M80,35 L65,55" 
          stroke="url(#penGradient)" 
          stroke-width="5" 
          stroke-linecap="round"
          fill="none"
          stroke-linejoin="round" />
    
    <!-- Flowing G -->
    <path d="M20,35 C15,50 25,70 40,65 C50,60 55,50 50,40 C45,30 35,35 30,45 L30,55" 
          stroke="url(#penGradient)" 
          stroke-width="5" 
          stroke-linecap="round"
          fill="none"
          stroke-linejoin="round" />
    
    <!-- e -->
    <path d="M50,50 C60,50 65,45 63,55 C61,65 55,65 50,55 C48,50 52,45 60,45" 
          stroke="url(#penGradient)" 
          stroke-width="4" 
          stroke-linecap="round"
          fill="none"
          stroke-linejoin="round" />
    
    <!-- n -->
    <path d="M65,55 C65,45 65,40 65,35 L65,60 C67,45 75,40 78,45 C81,50 81,60 81,65" 
          stroke="url(#penGradient)" 
          stroke-width="4" 
          stroke-linecap="round"
          fill="none"
          stroke-linejoin="round" />
  </g>
</svg>