<svg xmlns="http://www.w3.org/2000/svg" viewBox="0 0 100 100" width="100" height="100">
  <!-- Gradient definitions -->
  <defs>
    <linearGradient id="logoGradient" x1="0%" y1="0%" x2="100%" y2="0%">
      <stop offset="0%" stop-color="#0cebeb" />
      <stop offset="100%" stop-color="#20e3b2" />
    </linearGradient>
    <filter id="subtleGlow" x="-10%" y="-10%" width="120%" height="120%">
      <feGaussianBlur stdDeviation="1" result="blur" />
      <feComposite in="SourceGraphic" in2="blur" operator="over" />
    </filter>
  </defs>
  
  <!-- Background circle -->
  <circle cx="50" cy="50" r="45" fill="#121212" />
  
  <!-- T horizontal bar -->
  <path d="M20,35 L80,35" 
        stroke="url(#logoGradient)" stroke-width="3" fill="none" filter="url(#subtleGlow)" />
  
  <!-- T vertical curved line -->
  <path d="M50,35 Q50,50 30,55" 
        stroke="url(#logoGradient)" stroke-width="3" fill="none" filter="url(#subtleGlow)" />
  
  <!-- G -->
  <path d="M60,50 C40,47 30,65 55,65 C63,55 60,53 52,56 M62,57 C66,58 70,56 68,53 C64,49 60,52 58,55 C55,60 62,65 68,61" 
        stroke="url(#logoGradient)" stroke-width="2.5" fill="none" filter="url(#subtleGlow)" />
  
  <!-- Tech accent lines -->
  <path d="M75,25 L85,25 L85,15" stroke="url(#logoGradient)" stroke-width="1.5" fill="none" />
  <path d="M75,75 L85,75 L85,85" stroke="url(#logoGradient)" stroke-width="1.5" fill="none" />
  <path d="M15,75 L25,75 L25,85" stroke="url(#logoGradient)" stroke-width="1.5" fill="none" />
</svg>