<svg xmlns="http://www.w3.org/2000/svg" xmlns:xlink="http://www.w3.org/1999/xlink" id="eVEWXr7Nvlw1" viewBox="0 0 300 300" shape-rendering="geometricPrecision" text-rendering="geometricPrecision" project-id="fce4b75017544916a9ed5f5e5d034d33" export-id="083e1db8f78047d998d097f55bc5b524" cached="false"><path d="M40.055108,116.294562q128.187457,0,146.879113,0c-147.073213.835179-146.206074,29.850132-80.147555,40.16006" transform="translate(.000001 0)" fill="none" stroke="#3f5787" stroke-width="0.6"/><path d="M144.177067,131.429047c-45.286498-7.324225-74.272226,32.865461-17.656578,33.680762c15.519306-18.009595,12.384195-22.273417-5.539318-16.27175" transform="translate(-6.231733-7.616565)" fill="none" stroke="#3f5787" stroke-width="0.6"/><path d="M142.099823,147.453229c7.448864,2.283498,16.617956.000001,12.463468-6.57794-9.250119-6.256777-15.514919-1.68289-19.041408,4.154489-6.80183,11.259033,10.566645,20.938229,21.118652,13.502089" transform="translate(-4.154489-3.462074)" fill="none" stroke="#3f5787" stroke-width="0.6"/><path d="" fill="none" stroke="#3f5787" stroke-width="0.6"/><path d="M162.872267,140.182873q0,21.118652.692415,20.772445c.790824-27.350387,18.348993-28.164958,18.348993,0" transform="translate(-9.001392-4.846903)" fill="none" stroke="#3f5787" stroke-width="0.6"/></svg>