<svg xmlns="http://www.w3.org/2000/svg" viewBox="0 0 120 120" width="120" height="120">
  <!-- Gradient definitions -->
  <defs>
    <linearGradient id="logoGradient" x1="0%" y1="0%" x2="100%" y2="0%">
      <stop offset="0%" stop-color="#0cebeb" />
      <stop offset="100%" stop-color="#20e3b2" />
    </linearGradient>
    <filter id="shadow" x="-10%" y="-10%" width="120%" height="120%">
      <feGaussianBlur stdDeviation="1" result="blur" />
      <feComposite in="SourceGraphic" in2="blur" operator="over" />
    </filter>
  </defs>
  
  <!-- Background (optional) -->
  <circle cx="60" cy="60" r="55" fill="#121212" />
  
  <!-- T horizontal bar -->
  <path d="M20,40 L100,40" stroke="url(#logoGradient)" stroke-width="8" stroke-linecap="round" filter="url(#shadow)" />
  
  <!-- T curve and G stylized -->
  <path d="M85,40 C85,40 75,55 60,55 C45,55 35,50 30,65" 
        stroke="url(#logoGradient)" stroke-width="8" fill="none" stroke-linecap="round" />
  
  <!-- G stylized -->
  <path d="M55,50 C45,50 40,60 40,70 C40,80 45,90 55,90 C65,90 70,80 70,70 L70,65 L55,65" 
        stroke="url(#logoGradient)" stroke-width="6" fill="none" stroke-linecap="round" stroke-linejoin="round" />
  
  <!-- E (simplified) -->
  <path d="M75,55 L95,55 M75,55 L75,85 M75,70 L90,70 M75,85 L95,85" 
        stroke="url(#logoGradient)" stroke-width="5" fill="none" stroke-linecap="round" />
  
  <!-- Tech accent lines -->
  <path d="M15,50 L15,65" stroke="url(#logoGradient)" stroke-width="2" fill="none" stroke-linecap="round" />
  <path d="M105,50 L105,65" stroke="url(#logoGradient)" stroke-width="2" fill="none" stroke-linecap="round" />
  <path d="M60,100 L60,110" stroke="url(#logoGradient)" stroke-width="2" fill="none" stroke-linecap="round" />
</svg>